<svg xmlns="http://www.w3.org/2000/svg" xmlns:xlink="http://www.w3.org/1999/xlink" width="0" height="0" style="display:none;"><symbol viewBox="0 0 24 24" id="github-fill"><path d="M12.001 2C6.47598 2 2.00098 6.475 2.00098 12C2.00098 16.425 4.86348 20.1625 8.83848 21.4875C9.33848 21.575 9.52598 21.275 9.52598 21.0125C9.52598 20.775 9.51348 19.9875 9.51348 19.15C7.00098 19.6125 6.35098 18.5375 6.15098 17.975C6.03848 17.6875 5.55098 16.8 5.12598 16.5625C4.77598 16.375 4.27598 15.9125 5.11348 15.9C5.90098 15.8875 6.46348 16.625 6.65098 16.925C7.55098 18.4375 8.98848 18.0125 9.56348 17.75C9.65098 17.1 9.91348 16.6625 10.201 16.4125C7.97598 16.1625 5.65098 15.3 5.65098 11.475C5.65098 10.3875 6.03848 9.4875 6.67598 8.7875C6.57598 8.5375 6.22598 7.5125 6.77598 6.1375C6.77598 6.1375 7.61348 5.875 9.52598 7.1625C10.326 6.9375 11.176 6.825 12.026 6.825C12.876 6.825 13.726 6.9375 14.526 7.1625C16.4385 5.8625 17.276 6.1375 17.276 6.1375C17.826 7.5125 17.476 8.5375 17.376 8.7875C18.0135 9.4875 18.401 10.375 18.401 11.475C18.401 15.3125 16.0635 16.1625 13.8385 16.4125C14.201 16.725 14.5135 17.325 14.5135 18.2625C14.5135 19.6 14.501 20.675 14.501 21.0125C14.501 21.275 14.6885 21.5875 15.1885 21.4875C19.259 20.1133 21.9999 16.2963 22.001 12C22.001 6.475 17.526 2 12.001 2Z"></path></symbol><symbol viewBox="0 0 24 24" id="google-fill"><path d="M3.06364 7.50914C4.70909 4.24092 8.09084 2 12 2C14.6954 2 16.959 2.99095 18.6909 4.60455L15.8227 7.47274C14.7864 6.48185 13.4681 5.97727 12 5.97727C9.39542 5.97727 7.19084 7.73637 6.40455 10.1C6.2045 10.7 6.09086 11.3409 6.09086 12C6.09086 12.6591 6.2045 13.3 6.40455 13.9C7.19084 16.2636 9.39542 18.0227 12 18.0227C13.3454 18.0227 14.4909 17.6682 15.3864 17.0682C16.4454 16.3591 17.15 15.3 17.3818 14.05H12V10.1818H21.4181C21.5364 10.8363 21.6 11.5182 21.6 12.2273C21.6 15.2727 20.5091 17.8363 18.6181 19.5773C16.9636 21.1046 14.7 22 12 22C8.09084 22 4.70909 19.7591 3.06364 16.4909C2.38638 15.1409 2 13.6136 2 12C2 10.3864 2.38638 8.85911 3.06364 7.50914Z"></path></symbol><symbol viewBox="0 0 24 24" id="linkedin-box-fill"><path d="M18.3362 18.339H15.6707V14.1622C15.6707 13.1662 15.6505 11.8845 14.2817 11.8845C12.892 11.8845 12.6797 12.9683 12.6797 14.0887V18.339H10.0142V9.75H12.5747V10.9207H12.6092C12.967 10.2457 13.837 9.53325 15.1367 9.53325C17.8375 9.53325 18.337 11.3108 18.337 13.6245V18.339H18.3362ZM7.00373 8.57475C6.14573 8.57475 5.45648 7.88025 5.45648 7.026C5.45648 6.1725 6.14648 5.47875 7.00373 5.47875C7.85873 5.47875 8.55173 6.1725 8.55173 7.026C8.55173 7.88025 7.85798 8.57475 7.00373 8.57475ZM8.34023 18.339H5.66723V9.75H8.34023V18.339ZM19.6697 3H4.32923C3.59498 3 3.00098 3.5805 3.00098 4.29675V19.7033C3.00098 20.4202 3.59498 21 4.32923 21H19.6675C20.401 21 21.001 20.4202 21.001 19.7033V4.29675C21.001 3.5805 20.401 3 19.6675 3H19.6697Z"></path></symbol><symbol viewBox="0 0 24 24" id="instagram-line"><path d="M12.001 9C10.3436 9 9.00098 10.3431 9.00098 12C9.00098 13.6573 10.3441 15 12.001 15C13.6583 15 15.001 13.6569 15.001 12C15.001 10.3427 13.6579 9 12.001 9ZM12.001 7C14.7614 7 17.001 9.2371 17.001 12C17.001 14.7605 14.7639 17 12.001 17C9.24051 17 7.00098 14.7629 7.00098 12C7.00098 9.23953 9.23808 7 12.001 7ZM18.501 6.74915C18.501 7.43926 17.9402 7.99917 17.251 7.99917C16.5609 7.99917 16.001 7.4384 16.001 6.74915C16.001 6.0599 16.5617 5.5 17.251 5.5C17.9393 5.49913 18.501 6.0599 18.501 6.74915ZM12.001 4C9.5265 4 9.12318 4.00655 7.97227 4.0578C7.18815 4.09461 6.66253 4.20007 6.17416 4.38967C5.74016 4.55799 5.42709 4.75898 5.09352 5.09255C4.75867 5.4274 4.55804 5.73963 4.3904 6.17383C4.20036 6.66332 4.09493 7.18811 4.05878 7.97115C4.00703 9.0752 4.00098 9.46105 4.00098 12C4.00098 14.4745 4.00753 14.8778 4.05877 16.0286C4.0956 16.8124 4.2012 17.3388 4.39034 17.826C4.5591 18.2606 4.7605 18.5744 5.09246 18.9064C5.42863 19.2421 5.74179 19.4434 6.17187 19.6094C6.66619 19.8005 7.19148 19.9061 7.97212 19.9422C9.07618 19.9939 9.46203 20 12.001 20C14.4755 20 14.8788 19.9934 16.0296 19.9422C16.8117 19.9055 17.3385 19.7996 17.827 19.6106C18.2604 19.4423 18.5752 19.2402 18.9074 18.9085C19.2436 18.5718 19.4445 18.2594 19.6107 17.8283C19.8013 17.3358 19.9071 16.8098 19.9432 16.0289C19.9949 14.9248 20.001 14.5389 20.001 12C20.001 9.52552 19.9944 9.12221 19.9432 7.97137C19.9064 7.18906 19.8005 6.66149 19.6113 6.17318C19.4434 5.74038 19.2417 5.42635 18.9084 5.09255C18.573 4.75715 18.2616 4.55693 17.8271 4.38942C17.338 4.19954 16.8124 4.09396 16.0298 4.05781C14.9258 4.00605 14.5399 4 12.001 4ZM12.001 2C14.7176 2 15.0568 2.01 16.1235 2.06C17.1876 2.10917 17.9135 2.2775 18.551 2.525C19.2101 2.77917 19.7668 3.1225 20.3226 3.67833C20.8776 4.23417 21.221 4.7925 21.476 5.45C21.7226 6.08667 21.891 6.81333 21.941 7.8775C21.9885 8.94417 22.001 9.28333 22.001 12C22.001 14.7167 21.991 15.0558 21.941 16.1225C21.8918 17.1867 21.7226 17.9125 21.476 18.55C21.2218 19.2092 20.8776 19.7658 20.3226 20.3217C19.7668 20.8767 19.2076 21.22 18.551 21.475C17.9135 21.7217 17.1876 21.89 16.1235 21.94C15.0568 21.9875 14.7176 22 12.001 22C9.28431 22 8.94514 21.99 7.87848 21.94C6.81431 21.8908 6.08931 21.7217 5.45098 21.475C4.79264 21.2208 4.23514 20.8767 3.67931 20.3217C3.12348 19.7658 2.78098 19.2067 2.52598 18.55C2.27848 17.9125 2.11098 17.1867 2.06098 16.1225C2.01348 15.0558 2.00098 14.7167 2.00098 12C2.00098 9.28333 2.01098 8.94417 2.06098 7.8775C2.11014 6.8125 2.27848 6.0875 2.52598 5.45C2.78014 4.79167 3.12348 4.23417 3.67931 3.67833C4.23514 3.1225 4.79348 2.78 5.45098 2.525C6.08848 2.2775 6.81348 2.11 7.87848 2.06C8.94514 2.0125 9.28431 2 12.001 2Z"></path></symbol><symbol viewBox="0 0 24 24" id="arrow-right-line"><path d="M16.1716 10.9999L10.8076 5.63589L12.2218 4.22168L20 11.9999L12.2218 19.778L10.8076 18.3638L16.1716 12.9999H4V10.9999H16.1716Z"></path></symbol><symbol viewBox="0 0 24 24" id="circle-fill"><path d="M12 22C17.5228 22 22 17.5228 22 12C22 6.47715 17.5228 2 12 2C6.47715 2 2 6.47715 2 12C2 17.5228 6.47715 22 12 22Z"></path></symbol><symbol viewBox="0 0 24 24" id="facebook-circle-fill"><path d="M12.001 2C6.47813 2 2.00098 6.47715 2.00098 12C2.00098 16.9913 5.65783 21.1283 10.4385 21.8785V14.8906H7.89941V12H10.4385V9.79688C10.4385 7.29063 11.9314 5.90625 14.2156 5.90625C15.3097 5.90625 16.4541 6.10156 16.4541 6.10156V8.5625H15.1931C13.9509 8.5625 13.5635 9.33334 13.5635 10.1242V12H16.3369L15.8936 14.8906H13.5635V21.8785C18.3441 21.1283 22.001 16.9913 22.001 12C22.001 6.47715 17.5238 2 12.001 2Z"></path></symbol><symbol viewBox="0 0 24 24" id="smartphone-line"><path d="M7 4V20H17V4H7ZM6 2H18C18.5523 2 19 2.44772 19 3V21C19 21.5523 18.5523 22 18 22H6C5.44772 22 5 21.5523 5 21V3C5 2.44772 5.44772 2 6 2ZM12 17C12.5523 17 13 17.4477 13 18C13 18.5523 12.5523 19 12 19C11.4477 19 11 18.5523 11 18C11 17.4477 11.4477 17 12 17Z"></path></symbol><symbol viewBox="0 0 24 24" id="mail-line"><path d="M3 3H21C21.5523 3 22 3.44772 22 4V20C22 20.5523 21.5523 21 21 21H3C2.44772 21 2 20.5523 2 20V4C2 3.44772 2.44772 3 3 3ZM20 7.23792L12.0718 14.338L4 7.21594V19H20V7.23792ZM4.51146 5L12.0619 11.662L19.501 5H4.51146Z"></path></symbol><symbol viewBox="0 0 24 24" id="pulse-line"><path d="M9 7.53861L15 21.5386L18.6594 13H23V11H17.3406L15 16.4614L9 2.46143L5.3406 11H1V13H6.6594L9 7.53861Z"></path></symbol><symbol viewBox="0 0 24 24" id="calendar-2-line"><path d="M9 1V3H15V1H17V3H21C21.5523 3 22 3.44772 22 4V20C22 20.5523 21.5523 21 21 21H3C2.44772 21 2 20.5523 2 20V4C2 3.44772 2.44772 3 3 3H7V1H9ZM20 11H4V19H20V11ZM8 13V15H6V13H8ZM13 13V15H11V13H13ZM18 13V15H16V13H18ZM7 5H4V9H20V5H17V7H15V5H9V7H7V5Z"></path></symbol><symbol viewBox="0 0 24 24" id="shape-line"><path d="M7.82929 20C7.41746 21.1652 6.30622 22 5 22C3.34315 22 2 20.6569 2 19C2 17.6938 2.83481 16.5825 4 16.1707V7.82929C2.83481 7.41746 2 6.30622 2 5C2 3.34315 3.34315 2 5 2C6.30622 2 7.41746 2.83481 7.82929 4H16.1707C16.5825 2.83481 17.6938 2 19 2C20.6569 2 22 3.34315 22 5C22 6.30622 21.1652 7.41746 20 7.82929V16.1707C21.1652 16.5825 22 17.6938 22 19C22 20.6569 20.6569 22 19 22C17.6938 22 16.5825 21.1652 16.1707 20H7.82929ZM7.82929 18H16.1707C16.472 17.1476 17.1476 16.472 18 16.1707V7.82929C17.1476 7.52801 16.472 6.85241 16.1707 6H7.82929C7.52801 6.85241 6.85241 7.52801 6 7.82929V16.1707C6.85241 16.472 7.52801 17.1476 7.82929 18ZM5 6C5.55228 6 6 5.55228 6 5C6 4.44772 5.55228 4 5 4C4.44772 4 4 4.44772 4 5C4 5.55228 4.44772 6 5 6ZM19 6C19.5523 6 20 5.55228 20 5C20 4.44772 19.5523 4 19 4C18.4477 4 18 4.44772 18 5C18 5.55228 18.4477 6 19 6ZM19 20C19.5523 20 20 19.5523 20 19C20 18.4477 19.5523 18 19 18C18.4477 18 18 18.4477 18 19C18 19.5523 18.4477 20 19 20ZM5 20C5.55228 20 6 19.5523 6 19C6 18.4477 5.55228 18 5 18C4.44772 18 4 18.4477 4 19C4 19.5523 4.44772 20 5 20Z"></path></symbol><symbol viewBox="0 0 24 24" id="rfid-line"><path d="M18.364 18.3641C21.8787 14.8493 21.8787 9.15086 18.364 5.63614L19.7782 4.22192C24.0739 8.51769 24.0739 15.4825 19.7782 19.7783L18.364 18.3641ZM5.63604 5.63614C2.12132 9.15086 2.12132 14.8493 5.63604 18.3641L4.22183 19.7783C-0.0739417 15.4825 -0.0739417 8.51769 4.22183 4.22192L5.63604 5.63614ZM15.5355 15.5355C17.4882 13.5829 17.4882 10.4171 15.5355 8.46445L16.9497 7.05024C19.6834 9.78391 19.6834 14.2161 16.9497 16.9497L15.5355 15.5355ZM8.46447 8.46445C6.51184 10.4171 6.51184 13.5829 8.46447 15.5355L7.05025 16.9497C4.31658 14.2161 4.31658 9.78391 7.05025 7.05024L8.46447 8.46445ZM12 14.0001C13.1046 14.0001 14 13.1046 14 12.0001C14 10.8955 13.1046 10.0001 12 10.0001C10.8954 10.0001 10 10.8955 10 12.0001C10 13.1046 10.8954 14.0001 12 14.0001Z"></path></symbol><symbol viewBox="0 0 24 24" id="twitter-x-fill"><path d="M17.6874 3.0625L12.6907 8.77425L8.37045 3.0625H2.11328L9.58961 12.8387L2.50378 20.9375H5.53795L11.0068 14.6886L15.7863 20.9375H21.8885L14.095 10.6342L20.7198 3.0625H17.6874ZM16.6232 19.1225L5.65436 4.78217H7.45745L18.3034 19.1225H16.6232Z"></path></symbol><symbol viewBox="0 0 24 24" id="artboard-line"><path d="M8.58579 17H3V15H21V17H15.4142L18.6569 20.2426L17.2426 21.6569L13 17.4142V20H11V17.4142L6.75736 21.6569L5.34315 20.2426L8.58579 17ZM5 3H19C19.5523 3 20 3.44772 20 4V14H4V4C4 3.44772 4.44772 3 5 3ZM6 5V12H18V5H6Z"></path></symbol><symbol viewBox="0 0 24 24" id="message-2-line"><path d="M6.45455 19L2 22.5V4C2 3.44772 2.44772 3 3 3H21C21.5523 3 22 3.44772 22 4V18C22 18.5523 21.5523 19 21 19H6.45455ZM5.76282 17H20V5H4V18.3851L5.76282 17ZM11 10H13V12H11V10ZM7 10H9V12H7V10ZM15 10H17V12H15V10Z"></path></symbol><symbol viewBox="0 0 24 24" id="menu-line"><path d="M3 4H21V6H3V4ZM3 11H21V13H3V11ZM3 18H21V20H3V18Z"></path></symbol><symbol viewBox="0 0 24 24" id="close-large-line"><path d="M10.5859 12L2.79297 4.20706L4.20718 2.79285L12.0001 10.5857L19.793 2.79285L21.2072 4.20706L13.4143 12L21.2072 19.7928L19.793 21.2071L12.0001 13.4142L4.20718 21.2071L2.79297 19.7928L10.5859 12Z"></path></symbol><symbol viewBox="0 0 24 24" id="check-line"><path d="M9.9997 15.1709L19.1921 5.97852L20.6063 7.39273L9.9997 17.9993L3.63574 11.6354L5.04996 10.2212L9.9997 15.1709Z"></path></symbol><symbol viewBox="0 0 24 24" id="map-pin-2-line"><path d="M12 23.7279L5.63604 17.364C2.12132 13.8492 2.12132 8.15076 5.63604 4.63604C9.15076 1.12132 14.8492 1.12132 18.364 4.63604C21.8787 8.15076 21.8787 13.8492 18.364 17.364L12 23.7279ZM16.9497 15.9497C19.6834 13.2161 19.6834 8.78392 16.9497 6.05025C14.2161 3.31658 9.78392 3.31658 7.05025 6.05025C4.31658 8.78392 4.31658 13.2161 7.05025 15.9497L12 20.8995L16.9497 15.9497ZM12 13C10.8954 13 10 12.1046 10 11C10 9.89543 10.8954 9 12 9C13.1046 9 14 9.89543 14 11C14 12.1046 13.1046 13 12 13Z"></path></symbol><symbol viewBox="0 0 24 24" id="phone-fill"><path d="M21 16.42V19.9561C21 20.4811 20.5941 20.9167 20.0705 20.9537C19.6331 20.9846 19.2763 21 19 21C10.1634 21 3 13.8366 3 5C3 4.72371 3.01545 4.36687 3.04635 3.9295C3.08337 3.40588 3.51894 3 4.04386 3H7.5801C7.83678 3 8.05176 3.19442 8.07753 3.4498C8.10067 3.67907 8.12218 3.86314 8.14207 4.00202C8.34435 5.41472 8.75753 6.75936 9.3487 8.00303C9.44359 8.20265 9.38171 8.44159 9.20185 8.57006L7.04355 10.1118C8.35752 13.1811 10.8189 15.6425 13.8882 16.9565L15.4271 14.8019C15.5572 14.6199 15.799 14.5573 16.001 14.6532C17.2446 15.2439 18.5891 15.6566 20.0016 15.8584C20.1396 15.8782 20.3225 15.8995 20.5502 15.9225C20.8056 15.9483 21 16.1633 21 16.42Z"></path></symbol><symbol viewBox="0 0 24 24" id="search-ai-4-line"><path d="M22.3135 20.8992L20.8994 22.3132L18.0713 19.4851L19.4854 18.071L22.3135 20.8992ZM11 1.99976C15.9679 1.99976 19.9999 6.03184 20 10.9998C20 15.9678 15.968 19.9998 11 19.9998C6.032 19.9998 2 15.9678 2 10.9998C2.00011 6.03185 6.03206 1.99976 11 1.99976ZM11 3.99976C7.13256 3.99976 4.00011 7.13235 4 10.9998C4 14.8673 7.1325 17.9998 11 17.9998C14.8675 17.9998 18 14.8673 18 10.9998C17.9999 7.13235 14.8674 3.99976 11 3.99976ZM10.5293 7.31909C10.7058 6.89305 11.2943 6.89305 11.4707 7.31909L11.7236 7.93042C12.1556 8.97319 12.9615 9.80598 13.9746 10.2566L14.6924 10.575C15.1029 10.7577 15.1028 11.356 14.6924 11.5388L13.9326 11.8767C12.9448 12.316 12.1534 13.119 11.7139 14.1277L11.4668 14.6931C11.2864 15.1072 10.7137 15.1072 10.5332 14.6931L10.2871 14.1277C9.84761 13.119 9.05518 12.316 8.06738 11.8767L7.30762 11.5388C6.89719 11.356 6.89717 10.7577 7.30762 10.575L8.02539 10.2566C9.0385 9.80598 9.84446 8.97321 10.2764 7.93042L10.5293 7.31909Z"></path></symbol><symbol viewBox="0 0 24 24" id="links-line"><path d="M13.0607 8.11097L14.4749 9.52518C17.2086 12.2589 17.2086 16.691 14.4749 19.4247L14.1214 19.7782C11.3877 22.5119 6.95555 22.5119 4.22188 19.7782C1.48821 17.0446 1.48821 12.6124 4.22188 9.87874L5.6361 11.293C3.68348 13.2456 3.68348 16.4114 5.6361 18.364C7.58872 20.3166 10.7545 20.3166 12.7072 18.364L13.0607 18.0105C15.0133 16.0578 15.0133 12.892 13.0607 10.9394L11.6465 9.52518L13.0607 8.11097ZM19.7782 14.1214L18.364 12.7072C20.3166 10.7545 20.3166 7.58872 18.364 5.6361C16.4114 3.68348 13.2456 3.68348 11.293 5.6361L10.9394 5.98965C8.98678 7.94227 8.98678 11.1081 10.9394 13.0607L12.3536 14.4749L10.9394 15.8891L9.52518 14.4749C6.79151 11.7413 6.79151 7.30911 9.52518 4.57544L9.87874 4.22188C12.6124 1.48821 17.0446 1.48821 19.7782 4.22188C22.5119 6.95555 22.5119 11.3877 19.7782 14.1214Z"></path></symbol></svg>